<svg xmlns="http://www.w3.org/2000/svg" xmlns:xlink="http://www.w3.org/1999/xlink" version="1.1" x="0px" y="0px" viewBox="0 0 841.9 1488.25" enable-background="new 0 0 841.9 1190.6" xml:space="preserve"><path d="M419,875.6c0,0-130.4-27.9-191.9-98.1c-36.2-41.4-30.3-91.1,2.3-109.2c0,0,18.4,53.9,189.4,59.7  c171.3-5.9,189.6-59.8,189.6-59.8c32.6,18.2,38.7,68,2.3,109.2C549.4,847.7,419,875.6,419,875.6L419,875.6z"/><g><path d="M453,478.6c-1.2-4.3-7.4-8-13.8-6.1c-7.8,2.5-8.9,8.4-8.9,8.4s7.7,0.4,12.5,1.9c4.8,1.5,7,5.2,7,5.2S454.2,482.9,453,478.6   z"/><path d="M399.5,472.6c-6.3-2.1-12.5,1.8-13.8,6.1c-1.2,4.3,3.2,9.5,3.2,9.5s2.3-3.7,7.2-5.2c4.8-1.5,12.4-1.9,12.4-1.9   S407.3,475,399.5,472.6z"/><path d="M600.1,601.1c-1.8-44.6-12.1-119.8-46.4-166.2c-34.4-46.4-69.9-50.1-69.9-50.1s-9.5-10.6-13.1-12.7s-5-8.1-8.4-12.4   s-14.4-3.2-14.4-3.4c0-0.3-1.4-1.5-7-6.7c-5.6-5.2-7.7-4.5-7.7-4.5s-8.5-7.7-14.2-7.7c-5.5,0-14.2,7.7-14.2,7.7s-2.1-0.7-7.7,4.5   c-5.6,5.2-7,6.6-7,6.7c0,0.3-11-1-14.4,3.4c-3.4,4.3-4.7,10.5-8.4,12.4c-3.6,2.1-13.1,12.7-13.1,12.7s-35.6,3.7-69.9,50.1   C250,481.2,239.8,556.5,238,601.1c-1.8,44.6-6.3,52.1-6.3,52.1s22.7,54.5,187.4,54.5s187.4-54.5,187.4-54.5   S601.8,645.6,600.1,601.1z M357.1,393.9l2.6-1.4l0.7-2.3c3.9-4.4,9.4-9.9,11-11c4.3-2.5,6.5-6.5,8.3-10.2c0.7-1.5,1.5-2.9,2.2-3.9   c0.6-0.3,2.3-0.7,6.1-0.7h1.8c3.3,0,5.2-1.7,7.2-3.4c0.7-0.7,2.2-2.1,5.9-5.5c1-0.8,1.1-1.1,1.7-1.5l2.3,0.1l3.6-3.2   c2.9-2.6,7-5.2,8.7-5.5c1.7,0.4,5.8,3,8.7,5.5l3.6,3.2l2.3-0.1c0.6,0.4,0.7,0.6,1.7,1.5c3.7,3.4,5.2,5,5.9,5.5   c1.9,1.9,3.9,3.4,7.2,3.4h1.8c3.9,0,5.5,0.4,6.1,0.7c0.7,1.1,1.5,2.5,2.2,3.9c1.8,3.6,4,7.7,8.3,10.2c1.7,1,7.2,6.6,11,11l0.7,2.3   l2.6,1.4c8.3,9.9-42.5,12.5-61.9,7C399.6,406.4,348.9,403.8,357.1,393.9z M511.9,601.3h-10.7l2.2,4.7l-4,1.9l-5.4,0.8l4.3,5.6h-6.5   l-0.7,6.3h-5.4l1,5.9h-3.4l1.9,6.9l-4.1,1.7l5.1,7.6l-3.4,0.7l2.1,6.2l-3.6,1.5l5.6,8.1l0.4,5.8l-5.1-0.4l-7.2-6.9l-1.5,4.5   l-6.9-3.9l-1.4,6.2l-7.8-5.8l-0.4,6.3l-5.4-3.9l-3,5.1l-5.2-2.9l-1.7,7l-4.3-4l-1.5,8.8l-4.8-4.5l-0.7,9.2h-5.6l-0.1,8.4l-5.9,4   l-5.9-4l-0.1-8.4h-5.6l-0.7-9.2l-4.8,4.5l-1.5-8.8l-4.3,4l-1.7-7l-5.2,2.9l-3-5.1l-5.4,3.9l-0.4-6.3l-7.8,5.8l-1.4-6.2l-6.9,3.9   l-1.5-4.5l-7.2,6.9l-5.1,0.4l0.4-5.8l5.6-8.1l-3.6-1.5l2.1-6.2l-3.4-0.7l5.1-7.6l-4.1-1.7l1.9-6.9h-3.4l1-5.9h-5.4l-0.7-6.3h-6.5   l4.3-5.6l-5.4-0.8l-4-1.9l2.2-4.7h-10.7l-4.3-3.7l7.2-4l8.4-0.8l-3.6-3.4l9.1-3.9l-3.2-3.7l7.6-2.8l-3.2-3.3l8.3-3l-3-3.2l4.4-3.6   l-3.6-4.7l4.8-3.3l-5-5.6l6.6-1.9l-1.9-1.9l-1.9-5.2l4-1.2l-7.3-14l14.9,8.1l-1.2-4.5l8,2.2v-4.1l8.9,4.1l0.1-5.5l8.8,5.1   c0,0-1.4-8.3-1.2-8.1c0,0.1-1-13.1-1-13.1s-2.1-1.2-3-4.8c-6.2-20.9-7.8-26.4-1-35.9c6.9-9.6,26-1.9,26-1.9v-1.9   c1-5.8,9.4-6.6,8.4-6.7c-1.1-0.1-1-3.4-1-3.4s-3.2,0.1-3.2-2.6s3.4-3.4,3.4-3.4s0.8-3.3,2.9-3.3c2.1,0,2.9,3.3,2.9,3.3   s3.4,0.7,3.4,3.4s-3.2,2.6-3.2,2.6s0,3.3-1,3.4c-1,0.1,7.4,0.8,8.4,6.7v1.9c0,0,19.1-7.6,26,1.9c6.7,9.5,5.2,15-1,35.9   c-1,3.4-3,4.8-3,4.8s-1.1,13.2-1,13.1c0-0.1-1.2,8.1-1.2,8.1l8.8-5.1l0.1,5.5l8.9-4.1v4.1l8-2.2l-1.2,4.5l14.9-8.1l-7.3,14l4,1.2   l-1.9,5.2l-1.9,1.9l6.6,1.9l-5,5.6l4.8,3.3l-3.6,4.7l4.4,3.6l-3,3.2l8.3,3L491,579l7.6,2.8l-3.2,3.7l9.1,3.9l-3.6,3.4l8.4,0.8   l7.2,4L511.9,601.3z"/></g><text x="0" y="1205.6" fill="#000000" font-size="5px" font-weight="bold" font-family="'Helvetica Neue', Helvetica, Arial-Unicode, Arial, Sans-serif">Created by Anand Prahlad</text><text x="0" y="1210.6" fill="#000000" font-size="5px" font-weight="bold" font-family="'Helvetica Neue', Helvetica, Arial-Unicode, Arial, Sans-serif">from the Noun Project</text></svg>