<svg xmlns="http://www.w3.org/2000/svg" xmlns:xlink="http://www.w3.org/1999/xlink" version="1.1" x="0px" y="0px" viewBox="0 0 100 125" enable-background="new 0 0 100 100" xml:space="preserve"><g><path d="M33.8,33c2.1,0.4,5.5-1.6,9.7-4.1c6.5-3.8,15.2-8.8,26.1-9.8c-0.4-0.5-0.9-0.9-1.3-1c-6-2.5-23.2-3.1-28-2.4   c-4.4,0.6-7.4,4.9-10.5,11.7C30.1,29.9,31.2,32.5,33.8,33z"/><path d="M93.3,46.3c-3.8-4.6-10.3-8.4-18.3-11c-1.1-5.6-2.5-11.5-4.4-14.8c-11,0.8-19.7,5.9-26.3,9.7c-4.2,2.5-7.4,4.3-9.9,4.3   c-0.3,0-0.6,0-0.8-0.1c-2.7-0.5-4.1-2.5-4.8-4.8c-0.7,1.8-1.3,4.1-1.9,6.5c-0.1,0-0.1,0.1-0.2,0.1c0,0-19.9,8.2-21.4,20.2   S12,84.6,42.8,84.6C63.7,84.6,103.8,58.9,93.3,46.3z M73.9,52.3c-4.4,5.3-27.8,18.5-40.3,13.6S24.1,53,24.1,53l0.9-5.5   c0,0,4,8.1,15.3,8.4c11.2,0.3,30.3-10.9,35.4-17C75.6,38.9,78.3,46.9,73.9,52.3z"/></g><text x="0" y="115" fill="#000000" font-size="5px" font-weight="bold" font-family="'Helvetica Neue', Helvetica, Arial-Unicode, Arial, Sans-serif">Created by parkjisun</text><text x="0" y="120" fill="#000000" font-size="5px" font-weight="bold" font-family="'Helvetica Neue', Helvetica, Arial-Unicode, Arial, Sans-serif">from the Noun Project</text></svg>