<?xml version="1.0" encoding="utf-8"?><!DOCTYPE svg PUBLIC "-//W3C//DTD SVG 1.1//EN" "http://www.w3.org/Graphics/SVG/1.1/DTD/svg11.dtd"><svg version="1.1" xmlns="http://www.w3.org/2000/svg" xmlns:xlink="http://www.w3.org/1999/xlink" x="0px" y="0px" viewBox="-9.683 0.149 58.394 125" enable-background="new -9.683 0.149 58.394 100" xml:space="preserve"><g><g><path d="M3.019,26.674l16.875,4.586l16.809-4.664l-3.514-3.467c0,0,0.724-11.555-3.044-16.858
			c-3.138-4.412-8.211-5.751-10.154-6.116l-0.194-0.006c-1.924,0.357-7.033,1.69-10.185,6.122
			c-3.771,5.303-3.045,16.858-3.045,16.858L3.019,26.674z M17.671,10.056l-1.347-3.591h7.246l-1.356,3.729
			c1.899,0.906,3.222,2.827,3.222,5.07c0,3.11-2.522,5.632-5.631,5.632c-3.111,0-5.633-2.521-5.633-5.632
			C14.172,12.91,15.619,10.898,17.671,10.056z"/><path d="M19.901,33.99L9.062,31.044c-0.011,0.207-0.031,0.408-0.031,0.617c0,6.028,4.887,10.914,10.913,10.914
			c6.028,0,10.913-4.887,10.913-10.914c0-0.236-0.02-0.467-0.035-0.701L19.901,33.99z"/></g><path d="M36.002,45.125c-0.018-0.008-0.266-0.112-1.45-0.22c-0.841-0.076-5.367-0.09-7.124-0.094L5.481,44.819
		c-8.717,0-15.164,7.109-15.164,15.979v33.488c0,7.349,9.709,7.349,9.709,0V61.811h3.052l0.035,38.339h32.925l0.011-38.339h3.029
		v32.476c0,7.404,9.655,7.404,9.633,0V61.023C48.711,53.717,43.862,46.566,36.002,45.125z M19.911,93.022
		c-1.816,0-3.289-1.473-3.289-3.291c0-1.816,1.473-3.289,3.289-3.289c1.818,0,3.29,1.474,3.29,3.289
		C23.201,91.55,21.73,93.022,19.911,93.022z M19.911,81.726c-1.816,0-3.289-1.473-3.289-3.289c0-1.817,1.473-3.292,3.289-3.292
		c1.818,0,3.29,1.475,3.29,3.292C23.201,80.253,21.73,81.726,19.911,81.726z M19.911,70.539c-1.816,0-3.289-1.473-3.289-3.29
		s1.473-3.29,3.289-3.29c1.818,0,3.29,1.474,3.29,3.29C23.201,69.067,21.73,70.539,19.911,70.539z M19.911,59.023
		c-1.816,0-3.289-1.472-3.289-3.289c0-1.816,1.473-3.29,3.289-3.29c1.818,0,3.29,1.474,3.29,3.29
		C23.201,57.552,21.73,59.023,19.911,59.023z"/></g><text x="-9.683" y="115.149" fill="#000000" font-size="5px" font-weight="bold" font-family="'Helvetica Neue', Helvetica, Arial-Unicode, Arial, Sans-serif">Created by Luis Prado</text><text x="-9.683" y="120.149" fill="#000000" font-size="5px" font-weight="bold" font-family="'Helvetica Neue', Helvetica, Arial-Unicode, Arial, Sans-serif">from the Noun Project</text></svg>